<mxfile host="app.diagrams.net" modified="2023-09-12T13:48:52.691Z" agent="Mozilla/5.0 (Windows NT 10.0; Win64; x64) AppleWebKit/537.36 (KHTML, like Gecko) Chrome/116.0.0.0 Safari/537.36" etag="t3IfGli8lwRLErvIAFlI" version="21.7.4" type="device">
  <diagram name="Página-1" id="SuCtsL2dSB4NqhBwuVWE">
    <mxGraphModel dx="874" dy="470" grid="1" gridSize="10" guides="1" tooltips="1" connect="1" arrows="1" fold="1" page="1" pageScale="1" pageWidth="827" pageHeight="1169" math="0" shadow="0">
      <root>
        <mxCell id="0" />
        <mxCell id="1" parent="0" />
        <mxCell id="72nwFF3tHiFQ2snVrZkw-1" value="" style="ellipse;html=1;shape=startState;fillColor=#000000;strokeColor=#ff0000;" vertex="1" parent="1">
          <mxGeometry x="150" y="90" width="30" height="30" as="geometry" />
        </mxCell>
        <mxCell id="72nwFF3tHiFQ2snVrZkw-2" value="" style="edgeStyle=orthogonalEdgeStyle;html=1;verticalAlign=bottom;endArrow=open;endSize=8;strokeColor=#ff0000;rounded=0;" edge="1" source="72nwFF3tHiFQ2snVrZkw-1" parent="1">
          <mxGeometry relative="1" as="geometry">
            <mxPoint x="165" y="180" as="targetPoint" />
          </mxGeometry>
        </mxCell>
        <mxCell id="72nwFF3tHiFQ2snVrZkw-5" value="" style="edgeStyle=orthogonalEdgeStyle;rounded=0;orthogonalLoop=1;jettySize=auto;html=1;" edge="1" parent="1" source="72nwFF3tHiFQ2snVrZkw-3" target="72nwFF3tHiFQ2snVrZkw-1">
          <mxGeometry relative="1" as="geometry" />
        </mxCell>
        <mxCell id="72nwFF3tHiFQ2snVrZkw-3" value="Escolher opção de empréstimo no sistema" style="rounded=1;whiteSpace=wrap;html=1;arcSize=40;fontColor=#000000;fillColor=#ffffc0;strokeColor=#ff0000;" vertex="1" parent="1">
          <mxGeometry x="105" y="180" width="120" height="40" as="geometry" />
        </mxCell>
        <mxCell id="72nwFF3tHiFQ2snVrZkw-4" value="" style="edgeStyle=orthogonalEdgeStyle;html=1;verticalAlign=bottom;endArrow=open;endSize=8;strokeColor=#ff0000;rounded=0;entryX=0.5;entryY=0;entryDx=0;entryDy=0;jumpStyle=arc;" edge="1" source="72nwFF3tHiFQ2snVrZkw-3" parent="1" target="72nwFF3tHiFQ2snVrZkw-6">
          <mxGeometry relative="1" as="geometry">
            <mxPoint x="170" y="250" as="targetPoint" />
          </mxGeometry>
        </mxCell>
        <mxCell id="72nwFF3tHiFQ2snVrZkw-19" style="edgeStyle=orthogonalEdgeStyle;rounded=0;orthogonalLoop=1;jettySize=auto;html=1;exitX=1;exitY=0.5;exitDx=0;exitDy=0;entryX=0;entryY=0.5;entryDx=0;entryDy=0;" edge="1" parent="1" source="72nwFF3tHiFQ2snVrZkw-6" target="72nwFF3tHiFQ2snVrZkw-12">
          <mxGeometry relative="1" as="geometry" />
        </mxCell>
        <mxCell id="72nwFF3tHiFQ2snVrZkw-6" value="Inserir ISBN do livro e ID do leitor" style="rounded=1;whiteSpace=wrap;html=1;arcSize=40;fontColor=#000000;fillColor=#ffffc0;strokeColor=#ff0000;" vertex="1" parent="1">
          <mxGeometry x="105" y="270" width="120" height="40" as="geometry" />
        </mxCell>
        <mxCell id="72nwFF3tHiFQ2snVrZkw-31" style="edgeStyle=orthogonalEdgeStyle;rounded=0;orthogonalLoop=1;jettySize=auto;html=1;exitX=0.5;exitY=0;exitDx=0;exitDy=0;entryX=0.5;entryY=0;entryDx=0;entryDy=0;" edge="1" parent="1" source="72nwFF3tHiFQ2snVrZkw-9" target="72nwFF3tHiFQ2snVrZkw-28">
          <mxGeometry relative="1" as="geometry" />
        </mxCell>
        <mxCell id="72nwFF3tHiFQ2snVrZkw-32" style="edgeStyle=orthogonalEdgeStyle;rounded=0;orthogonalLoop=1;jettySize=auto;html=1;exitX=0;exitY=0.5;exitDx=0;exitDy=0;entryX=1;entryY=0.5;entryDx=0;entryDy=0;" edge="1" parent="1" source="72nwFF3tHiFQ2snVrZkw-9" target="72nwFF3tHiFQ2snVrZkw-3">
          <mxGeometry relative="1" as="geometry" />
        </mxCell>
        <mxCell id="72nwFF3tHiFQ2snVrZkw-33" value="s" style="edgeLabel;html=1;align=center;verticalAlign=middle;resizable=0;points=[];" vertex="1" connectable="0" parent="72nwFF3tHiFQ2snVrZkw-32">
          <mxGeometry x="-0.6" y="-1" relative="1" as="geometry">
            <mxPoint as="offset" />
          </mxGeometry>
        </mxCell>
        <mxCell id="72nwFF3tHiFQ2snVrZkw-9" value="Tentar novamente?" style="rhombus;whiteSpace=wrap;html=1;fontColor=#000000;fillColor=#ffffc0;strokeColor=#ff0000;" vertex="1" parent="1">
          <mxGeometry x="280" y="170" width="110" height="60" as="geometry" />
        </mxCell>
        <mxCell id="72nwFF3tHiFQ2snVrZkw-24" style="edgeStyle=orthogonalEdgeStyle;rounded=0;orthogonalLoop=1;jettySize=auto;html=1;exitX=0.5;exitY=1;exitDx=0;exitDy=0;entryX=0.5;entryY=0;entryDx=0;entryDy=0;" edge="1" parent="1" source="72nwFF3tHiFQ2snVrZkw-12" target="72nwFF3tHiFQ2snVrZkw-15">
          <mxGeometry relative="1" as="geometry" />
        </mxCell>
        <mxCell id="72nwFF3tHiFQ2snVrZkw-25" value="s" style="edgeLabel;html=1;align=center;verticalAlign=middle;resizable=0;points=[];" vertex="1" connectable="0" parent="72nwFF3tHiFQ2snVrZkw-24">
          <mxGeometry x="-0.1049" relative="1" as="geometry">
            <mxPoint as="offset" />
          </mxGeometry>
        </mxCell>
        <mxCell id="72nwFF3tHiFQ2snVrZkw-12" value="Leitor registrado?" style="rhombus;whiteSpace=wrap;html=1;fontColor=#000000;fillColor=#ffffc0;strokeColor=#ff0000;" vertex="1" parent="1">
          <mxGeometry x="304" y="260" width="110" height="60" as="geometry" />
        </mxCell>
        <mxCell id="72nwFF3tHiFQ2snVrZkw-13" value="Registrar Leitor" style="rounded=1;whiteSpace=wrap;html=1;arcSize=40;fontColor=#000000;fillColor=#ffffc0;strokeColor=#ff0000;" vertex="1" parent="1">
          <mxGeometry x="460" y="180" width="120" height="40" as="geometry" />
        </mxCell>
        <mxCell id="72nwFF3tHiFQ2snVrZkw-18" style="edgeStyle=orthogonalEdgeStyle;rounded=0;orthogonalLoop=1;jettySize=auto;html=1;exitX=0;exitY=0.5;exitDx=0;exitDy=0;jumpStyle=arc;" edge="1" parent="1" source="72nwFF3tHiFQ2snVrZkw-14" target="72nwFF3tHiFQ2snVrZkw-9">
          <mxGeometry relative="1" as="geometry">
            <Array as="points">
              <mxPoint x="85" y="380" />
              <mxPoint x="85" y="240" />
              <mxPoint x="335" y="240" />
            </Array>
          </mxGeometry>
        </mxCell>
        <mxCell id="72nwFF3tHiFQ2snVrZkw-14" value="Retornar mensagem" style="rounded=1;whiteSpace=wrap;html=1;arcSize=40;fontColor=#000000;fillColor=#ffffc0;strokeColor=#ff0000;" vertex="1" parent="1">
          <mxGeometry x="105" y="360" width="120" height="40" as="geometry" />
        </mxCell>
        <mxCell id="72nwFF3tHiFQ2snVrZkw-26" style="edgeStyle=orthogonalEdgeStyle;rounded=0;orthogonalLoop=1;jettySize=auto;html=1;exitX=0.5;exitY=1;exitDx=0;exitDy=0;entryX=0.541;entryY=-0.014;entryDx=0;entryDy=0;entryPerimeter=0;" edge="1" parent="1" source="72nwFF3tHiFQ2snVrZkw-15" target="72nwFF3tHiFQ2snVrZkw-16">
          <mxGeometry relative="1" as="geometry" />
        </mxCell>
        <mxCell id="72nwFF3tHiFQ2snVrZkw-27" value="s" style="edgeLabel;html=1;align=center;verticalAlign=middle;resizable=0;points=[];" vertex="1" connectable="0" parent="72nwFF3tHiFQ2snVrZkw-26">
          <mxGeometry x="-0.2987" relative="1" as="geometry">
            <mxPoint as="offset" />
          </mxGeometry>
        </mxCell>
        <mxCell id="72nwFF3tHiFQ2snVrZkw-15" value="Livro disponível?" style="rhombus;whiteSpace=wrap;html=1;fontColor=#000000;fillColor=#ffffc0;strokeColor=#ff0000;" vertex="1" parent="1">
          <mxGeometry x="310" y="350" width="110" height="60" as="geometry" />
        </mxCell>
        <mxCell id="72nwFF3tHiFQ2snVrZkw-29" style="edgeStyle=orthogonalEdgeStyle;rounded=0;orthogonalLoop=1;jettySize=auto;html=1;exitX=1;exitY=0.5;exitDx=0;exitDy=0;entryX=0;entryY=0.5;entryDx=0;entryDy=0;" edge="1" parent="1" source="72nwFF3tHiFQ2snVrZkw-16" target="72nwFF3tHiFQ2snVrZkw-17">
          <mxGeometry relative="1" as="geometry" />
        </mxCell>
        <mxCell id="72nwFF3tHiFQ2snVrZkw-16" value="Realizar empréstimo" style="rounded=1;whiteSpace=wrap;html=1;arcSize=40;fontColor=#000000;fillColor=#ffffc0;strokeColor=#ff0000;" vertex="1" parent="1">
          <mxGeometry x="299" y="460" width="120" height="40" as="geometry" />
        </mxCell>
        <mxCell id="72nwFF3tHiFQ2snVrZkw-30" style="edgeStyle=orthogonalEdgeStyle;rounded=0;orthogonalLoop=1;jettySize=auto;html=1;exitX=1;exitY=0.5;exitDx=0;exitDy=0;entryX=0.5;entryY=1;entryDx=0;entryDy=0;" edge="1" parent="1" source="72nwFF3tHiFQ2snVrZkw-17" target="72nwFF3tHiFQ2snVrZkw-28">
          <mxGeometry relative="1" as="geometry" />
        </mxCell>
        <mxCell id="72nwFF3tHiFQ2snVrZkw-17" value="Gravar histórico de empréstimo" style="rounded=1;whiteSpace=wrap;html=1;arcSize=40;fontColor=#000000;fillColor=#ffffc0;strokeColor=#ff0000;" vertex="1" parent="1">
          <mxGeometry x="510" y="420" width="120" height="40" as="geometry" />
        </mxCell>
        <mxCell id="72nwFF3tHiFQ2snVrZkw-20" value="" style="endArrow=none;html=1;rounded=0;entryX=1;entryY=0.5;entryDx=0;entryDy=0;exitX=0.592;exitY=1.05;exitDx=0;exitDy=0;exitPerimeter=0;" edge="1" parent="1" source="72nwFF3tHiFQ2snVrZkw-13" target="72nwFF3tHiFQ2snVrZkw-12">
          <mxGeometry relative="1" as="geometry">
            <mxPoint x="490" y="270" as="sourcePoint" />
            <mxPoint x="650" y="270" as="targetPoint" />
            <Array as="points">
              <mxPoint x="530" y="290" />
            </Array>
          </mxGeometry>
        </mxCell>
        <mxCell id="72nwFF3tHiFQ2snVrZkw-21" value="N" style="resizable=0;html=1;whiteSpace=wrap;align=right;verticalAlign=bottom;" connectable="0" vertex="1" parent="72nwFF3tHiFQ2snVrZkw-20">
          <mxGeometry x="1" relative="1" as="geometry" />
        </mxCell>
        <mxCell id="72nwFF3tHiFQ2snVrZkw-22" value="" style="endArrow=none;html=1;rounded=0;exitX=1;exitY=0.5;exitDx=0;exitDy=0;" edge="1" parent="1" source="72nwFF3tHiFQ2snVrZkw-14" target="72nwFF3tHiFQ2snVrZkw-15">
          <mxGeometry relative="1" as="geometry">
            <mxPoint x="100" y="420" as="sourcePoint" />
            <mxPoint x="260" y="420" as="targetPoint" />
          </mxGeometry>
        </mxCell>
        <mxCell id="72nwFF3tHiFQ2snVrZkw-23" value="N" style="resizable=0;html=1;whiteSpace=wrap;align=right;verticalAlign=bottom;" connectable="0" vertex="1" parent="72nwFF3tHiFQ2snVrZkw-22">
          <mxGeometry x="1" relative="1" as="geometry" />
        </mxCell>
        <mxCell id="72nwFF3tHiFQ2snVrZkw-28" value="" style="ellipse;html=1;shape=endState;fillColor=#000000;strokeColor=#ff0000;" vertex="1" parent="1">
          <mxGeometry x="680" y="250" width="30" height="30" as="geometry" />
        </mxCell>
      </root>
    </mxGraphModel>
  </diagram>
</mxfile>
